<svg xmlns="http://www.w3.org/2000/svg" x="0px" y="0px" width="100" height="100" viewBox="0 0 24 24">
  <path d="M12 1L3 5v8.62C3 17.55 7.33 22 12 22s9-4.45 9-8.38V5l-9-4zm5.9 13.62C17.9 17.16 15.12 20 12 20s-5.9-2.84-5.9-5.38V6.5l5.9-2.62 5.9 2.62v8.12zm-6.45-.12v-2.54c1.57-.11 2.82-.76 2.82-2.22 0-1.33-1.18-2-2.82-2-.86 0-1.66.18-2.38.5l.38-1.42c.58-.22 1.34-.38 2-.4v-1.8h1.55v1.84c1.34.24 2.34 1.03 2.34 2.4 0 1.53-1.18 2.42-2.88 2.7v2.6H11.4zm.15-6.44c-.58 0-1.2.1-1.76.28l-.28 1.1c.3-.1.8-.2 1.28-.2.96 0 1.56.54 1.56 1.3 0 1-.7 1.46-1.84 1.5v.26c1 .04 1.74.64 1.74 1.36 0 .86-.64 1.38-1.78 1.44-.68.04-1.3-.04-1.82-.28v1.16h1.55v-1.24c.8-.26 1.36-.76 1.36-1.58 0-1.02-.96-1.42-2-1.64v-.16c1-.22 1.68-.82 1.68-1.8 0-1.08-.84-1.78-2.02-1.8z" fill="white"></path>
</svg>
